# xmcd CD database file
#
# Track frame offsets:
#	150
#	13241
#	24968
#	41458
#	57076
#	77073
#	86249
#	97777
#	107324
#	121182
#	136192
#	146980
#	165619
#	185741
#	209547
#
# Disc length: 2907 seconds
#
# Revision: 0
# Processed by: cddbd v1.5.2PL0 Copyright (c) Steve Scherf et al.
# Submitted via: CDex 1.51
#
DISCID=c20b590f
DTITLE=Johannes Mössinger - Rules - No Rules CD2
DYEAR=2010
DGENRE=Jazz
TTITLE0=July
TTITLE1=It's Teatime
TTITLE2=If only I had known before
TTITLE3=Feel it
TTITLE4=Dream Dancer
TTITLE5=The Truth
TTITLE6=The Power of the Trees
TTITLE7=Prelude
TTITLE8=Yogjakarta
TTITLE9=Freedom for Us
TTITLE10=Dream Interpretation
TTITLE11=No Rules
TTITLE12=Rules
TTITLE13=Traveling in Asia
TTITLE14=The End
EXTD=YEAR: 2010
EXTT0=
EXTT1=
EXTT2=
EXTT3=
EXTT4=
EXTT5=
EXTT6=
EXTT7=
EXTT8=
EXTT9=
EXTT10=
EXTT11=
EXTT12=
EXTT13=
EXTT14=
PLAYORDER=
